<?xml version="1.0" encoding="UTF-8"?>
<svg xmlns="http://www.w3.org/2000/svg" version="1.1" viewBox="0 0 800 800">
  <defs>
    <style>
      .cls-1 {
        fill: #fc3;
      }
    </style>
  </defs>
  <!-- Generator: Adobe Illustrator 28.6.0, SVG Export Plug-In . SVG Version: 1.2.0 Build 709)  -->
  <g>
    <g id="Capa_1">
      <g>
        <path class="cls-1" d="M791.4,673.9L444.1,72.4c-9-15.8-26-25.6-44.2-25.6s-35.1,9.8-44.2,25.5L6.8,676.7c-9.1,15.7-9.1,35.3,0,51,9.1,15.8,26,25.6,44.2,25.6h698c28.1,0,51-22.9,51-51,0-10.5-3.1-20.6-8.6-28.2ZM749,723.6H51c-7.6,0-14.8-4.1-18.6-10.7-3.8-6.6-3.8-14.9,0-21.5L381.3,87.1c3.8-6.6,10.9-10.7,18.6-10.7s14.8,4.1,18.6,10.7l348,602.8c2.5,3.6,3.9,7.9,3.9,12.4,0,11.8-9.7,21.4-21.5,21.4Z"/>
        <polygon class="cls-1" points="416 547.6 424 272.9 364 272.9 372 547.6 416 547.6"/>
        <path class="cls-1" d="M394,586.9c-20.9,0-36,15.8-36,37.7s15.1,37.7,36,37.7,36.1-15.5,36.1-37.7-14.8-37.7-36.1-37.7Z"/>
      </g>
    </g>
  </g>
</svg>